<svg width="200" height="200" viewBox="0 0 200 200" xmlns="http://www.w3.org/2000/svg">
  
  <!-- Background -->
  <rect width="200" height="200" />

  <!-- Thicker Glitched U base -->
  <path d="M60 30 V120 A40 40 0 0 0 140 120 V30" stroke-width="35" fill="none"/>

  <!-- Symmetrical Glitch fragments on both sides -->
  <!-- Left Side -->
  <rect x="35" y="35" width="16" height="5" />
  <rect x="40" y="50" width="14" height="5" />
  <rect x="60" y="52" width="18" height="8" />
  <rect x="62" y="70" width="19" height="3" />
  <rect x="40" y="85" width="22" height="6" />
  <rect x="34" y="92" width="14" height="8" />
  <rect x="62" y="110" width="29" height="11" />
  <rect x="38" y="121" width="17" height="6" />
  <rect x="40" y="145" width="32" height="12" />
  <rect x="62" y="165" width="20" height="4" />

  <!-- Right Side -->
  <rect x="115" y="32" width="16" height="5" />
  <rect x="145" y="42" width="14" height="7" />
  <rect x="122" y="55" width="20" height="7" />
  <rect x="140" y="67" width="19" height="2" />
  <rect x="120" y="79" width="22" height="4" />
  <rect x="152" y="91" width="14" height="5" />
  <rect x="120" y="103" width="29" height="8" />
  <rect x="145" y="115" width="17" height="6" />
  <rect x="115" y="129" width="22" height="8" />
  <rect x="138" y="139" width="20" height="5" />
  <rect x="125" y="151" width="26" height="5" />
  <rect x="120" y="163" width="18" height="7" />

</svg>
